<svg width="512" height="512" viewBox="0 0 512 512" fill="none" xmlns="http://www.w3.org/2000/svg">
<rect width="512" height="512" fill="#5F278B"/>
<path d="M207.639 175.216V335.353L177.722 305.462V175.216C177.722 154.596 160.928 137.816 140.291 137.816H132.463C121.126 137.816 111.907 147.028 111.907 158.355C111.907 164.21 114.418 169.814 118.806 173.704L119.492 174.349L136.064 191.048C155.209 210.327 165.749 235.905 165.749 263.065H165.739L116.859 214.227C116.194 213.501 115.528 212.796 114.832 212.091L98.5622 195.694C88.0318 186.15 82 172.565 82 158.345C82 130.54 104.634 107.925 132.463 107.925H140.291C177.43 107.925 207.639 138.109 207.639 175.216ZM177.722 71V103.824C202.666 117.57 219.602 144.115 219.602 174.53V378.235C219.602 396.365 204.845 411.109 186.699 411.109H157.377L127.46 441H186.699C221.337 441 249.519 412.842 249.519 378.235V174.53C249.519 127.225 219.622 86.7618 177.722 71ZM303.361 175.216V335.353L333.278 305.462V175.216C333.278 154.596 350.072 137.816 370.709 137.816H378.537C389.874 137.816 399.093 147.028 399.093 158.355C399.093 164.21 396.582 169.814 392.194 173.704L391.508 174.349L374.936 191.048C355.791 210.327 345.251 235.905 345.251 263.065H345.261L394.141 214.227C394.806 213.501 395.472 212.796 396.168 212.091L412.438 195.694C422.968 186.15 429 172.565 429 158.345C429 130.54 406.366 107.925 378.537 107.925H370.709C333.57 107.925 303.361 138.109 303.361 175.216ZM261.481 174.53V378.235C261.481 412.842 289.663 441 324.301 441H383.54L353.623 411.109H324.301C306.155 411.109 291.398 396.365 291.398 378.235V174.53C291.398 144.115 308.334 117.57 333.278 103.824V71C291.378 86.7618 261.481 127.225 261.481 174.53Z" fill="white"/>
</svg>
