<svg width="388" height="126" viewBox="0 0 388 126" fill="none" xmlns="http://www.w3.org/2000/svg">
<path d="M42.5888 35.9289V90.1394L32.4699 80.0205V35.9289C32.4699 28.9487 26.7896 23.2684 19.8094 23.2684H17.162C13.3274 23.2684 10.2092 26.3866 10.2092 30.2212C10.2092 32.2034 11.0587 34.1003 12.5427 35.4171L12.7747 35.6355L18.38 41.2885C24.8552 47.8149 28.4203 56.4736 28.4203 65.6679H28.4169L11.8843 49.1352C11.6591 48.8896 11.4339 48.6508 11.1985 48.412L5.69561 42.8613C2.13389 39.6305 0.09375 35.0316 0.09375 30.2178C0.09375 20.8052 7.7494 13.1496 17.162 13.1496H19.8094C32.371 13.1496 42.5888 23.3673 42.5888 35.9289ZM32.4699 0.649414V11.761C40.9068 16.4145 46.6349 25.4006 46.6349 35.6969V104.656C46.6349 110.793 41.6437 115.784 35.5063 115.784H25.5887L15.4699 125.903H35.5063C47.2217 125.903 56.7538 116.371 56.7538 104.656V35.6969C56.7538 19.6828 46.6418 5.98517 32.4699 0.649414ZM74.9649 35.9289V90.1394L85.0838 80.0205V35.9289C85.0838 28.9487 90.7641 23.2684 97.7443 23.2684H100.392C104.226 23.2684 107.345 26.3866 107.345 30.2212C107.345 32.2034 106.495 34.1003 105.011 35.4171L104.779 35.6355L99.1737 41.2885C92.6985 47.8149 89.1334 56.4736 89.1334 65.6679H89.1368L105.669 49.1352C105.895 48.8896 106.12 48.6508 106.355 48.412L111.858 42.8613C115.42 39.6305 117.46 35.0316 117.46 30.2178C117.46 20.8052 109.804 13.1496 100.392 13.1496H97.7443C85.1827 13.1496 74.9649 23.3673 74.9649 35.9289ZM60.7999 35.6969V104.656C60.7999 116.371 70.332 125.903 82.0474 125.903H102.084L91.965 115.784H82.0474C75.91 115.784 70.9188 110.793 70.9188 104.656V35.6969C70.9188 25.4006 76.6469 16.4145 85.0838 11.761V0.649414C70.9119 5.98517 60.7999 19.6828 60.7999 35.6969ZM186.46 28.5871C185.699 28.5871 185.081 29.2046 185.081 29.9654C185.081 30.7262 185.699 31.3437 186.46 31.3437C187.221 31.3437 187.838 30.7262 187.838 29.9654C187.838 29.2046 187.221 28.5871 186.46 28.5871ZM186.46 28.3278C187.364 28.3278 188.097 29.0613 188.097 29.9654C188.097 30.8695 187.364 31.603 186.46 31.603C185.556 31.603 184.822 30.8695 184.822 29.9654C184.822 29.0613 185.556 28.3278 186.46 28.3278ZM186.497 30.2178H186.095V30.849H185.774V29.0681H186.548C186.866 29.0681 187.125 29.3274 187.125 29.6447C187.125 29.863 187.002 30.0541 186.821 30.153L187.159 30.8524H186.804L186.501 30.2212L186.497 30.2178ZM186.095 29.9586H186.548C186.722 29.9586 186.862 29.8187 186.862 29.6447C186.862 29.4707 186.722 29.3308 186.548 29.3308H186.095V29.962V29.9586ZM150.246 25.1721C152.859 22.6372 153.916 22.2551 158.901 22.2551H178.773L184.491 16.6567H158.147C151.477 16.6567 149.59 17.2912 145.681 21.1634L135.159 31.6064H143.617L150.249 25.1755M177.921 23.1524H159.02C154.002 23.1524 153.217 23.5345 150.941 25.8134L145.145 31.6098H152.985L154.851 29.7436C156.083 28.512 156.635 28.3926 159.119 28.3926H172.677L177.917 23.1524H177.921ZM179.964 31.6098L194.951 16.6601H185.641L170.695 31.6098H179.964ZM240.411 26.1376H234.546V16.6601H240.411V26.1376ZM274.425 16.6601V31.6712H269.222V26.5469H263.637V31.6712H258.434V16.6601H263.637V21.6649H269.222V16.6601H274.425ZM246.958 16.6601H256.613V21.2624H247.586V22.1733H251.864C254.487 22.1733 256.613 24.2987 256.613 26.9222C256.613 29.5457 254.487 31.6712 251.864 31.6712H227.181L231.8 27.0689H251.587V26.158H246.954C244.331 26.158 242.205 24.0326 242.205 21.4091C242.205 18.7855 244.331 16.6601 246.954 16.6601H246.958ZM201.925 16.6601H208.188V21.2624H203.224C201.222 21.2624 199.762 22.163 199.762 24.1656C199.762 26.1683 201.222 27.0689 203.224 27.0689H208.188V31.6712H201.925C197.483 31.6712 194.18 28.3073 194.18 24.1656C194.18 20.0239 197.483 16.6601 201.925 16.6601ZM221.231 27.0689L216.618 31.6712H210.007V16.6601H215.209V27.0689H221.227H221.231ZM240.411 16.6601L225.362 31.6712H218.44L233.475 16.6601H240.411ZM153.377 55.7571H145.909C142.406 55.7571 141.403 54.5358 141.403 51.4926V48.6132C141.403 45.5735 142.406 44.3487 145.773 44.3487H153.241V39.8693H145.503C139.014 39.8693 135.702 43.2638 135.702 48.5586V51.5438C135.702 56.8386 139.014 60.2332 145.503 60.2332H153.377V55.7537V55.7571ZM176.024 51.4653V48.6405C176.024 43.2092 172.793 39.5998 166.14 39.5998H164.349C157.696 39.5998 154.466 43.2127 154.466 48.6405V51.4653C154.466 56.8966 157.696 60.5061 164.349 60.5061H166.14C172.793 60.5061 176.024 56.8932 176.024 51.4653ZM160.166 51.6837V48.371C160.166 45.1402 161.251 43.9734 164.185 43.9734H166.304C169.238 43.9734 170.323 45.1402 170.323 48.371V51.6837C170.323 54.9145 169.238 56.1085 166.304 56.1085H164.185C161.251 56.1085 160.166 54.9145 160.166 51.6837ZM178.197 60.2366H183.437L184.522 44.9219C184.549 44.5159 184.631 44.243 185.01 44.243C185.31 44.243 185.47 44.4613 185.552 44.8673L187.453 55.7026C187.94 58.5547 189.813 60.5641 192.993 60.5641C196.173 60.5641 197.936 58.6365 198.424 55.7299L200.243 44.84C200.297 44.5125 200.461 44.243 200.758 44.243C201.137 44.243 201.164 44.5432 201.191 44.8946L202.276 60.2366H207.516L206.24 45.6827C205.862 41.367 204.313 39.5452 200.864 39.5452C197.414 39.5452 195.651 41.6911 195.135 45.1402L193.587 55.242C193.532 55.6753 193.368 55.9482 193.017 55.9482C192.665 55.9482 192.529 55.7299 192.447 55.2966L190.844 45.1675C190.301 41.6638 188.374 39.5452 185.061 39.5452C181.967 39.5452 179.848 41.309 179.469 45.6827L178.193 60.2366H178.197ZM209.696 60.2366H214.936L216.021 44.9219C216.049 44.5159 216.131 44.243 216.509 44.243C216.809 44.243 216.97 44.4613 217.052 44.8673L218.952 55.7026C219.44 58.5547 221.313 60.5641 224.492 60.5641C227.672 60.5641 229.436 58.6365 229.924 55.7299L231.742 44.84C231.797 44.5125 231.96 44.243 232.257 44.243C232.636 44.243 232.663 44.5432 232.69 44.8946L233.775 60.2366H239.016L237.74 45.6827C237.361 41.367 235.812 39.5452 232.363 39.5452C228.914 39.5452 227.15 41.6911 226.635 45.1402L225.086 55.242C225.031 55.6753 224.868 55.9482 224.516 55.9482C224.165 55.9482 224.028 55.7299 223.947 55.2966L222.343 45.1675C221.801 41.6638 219.873 39.5452 216.56 39.5452C213.466 39.5452 211.347 41.309 210.969 45.6827L209.693 60.2366H209.696ZM250.209 60.588H253.143C259.55 60.588 261.56 57.7632 261.56 52.8777V39.8727H256.128V53.3963C256.128 55.3512 255.258 56.2484 253.222 56.2484H250.127C247.954 56.2484 247.169 55.3512 247.169 53.3963V39.8727H241.738V52.8777C241.738 57.7666 244.099 60.588 250.209 60.588ZM264.954 60.2366H270.385V44.7308C270.385 44.3794 270.495 44.1611 270.846 44.1611C271.146 44.1611 271.225 44.4613 271.334 44.7035L275.759 55.5115C277.062 58.6877 278.771 60.588 282.248 60.588C285.182 60.588 287.788 58.6877 287.788 54.8326V39.8727H282.357V55.4058C282.357 55.7571 282.248 55.9755 281.896 55.9755C281.596 55.9755 281.514 55.6753 281.408 55.433L276.983 44.6251C275.735 41.558 273.971 39.5486 270.495 39.5486C267.561 39.5486 264.954 41.5853 264.954 45.304V60.2366ZM291.455 60.2366H296.887V39.8727H291.455V60.2366ZM307.203 60.2366H312.635V44.3521H320.372V39.8727H299.463V44.3521H307.2V60.2366H307.203ZM329.198 60.2366H334.629V53.1507L342.503 39.8727H336.83L332.593 46.9313C332.265 47.5011 331.641 47.4738 331.344 46.9313L327.407 39.8727H321.324L329.198 53.1507V60.2366ZM153.371 84.6023H145.903C142.399 84.6023 141.396 83.381 141.396 80.3378V77.4584C141.396 74.4187 142.399 73.1939 145.766 73.1939H153.234V68.7144H145.497C139.008 68.7144 135.695 72.109 135.695 77.4038V80.389C135.695 85.6838 139.008 89.0783 145.497 89.0783H153.371V84.5989V84.6023ZM155.95 89.0817H161.381V81.1805H171.019V89.0817H176.45V68.7179H171.019V76.4281H161.381V68.7179H155.95V89.0817ZM196.599 89.0817H202.245L195.538 72.6003C194.508 70.0484 193.095 68.3903 190.243 68.3903C187.391 68.3903 186.17 70.0723 185.112 72.6549L178.35 89.0817H183.836L185.467 84.8172H194.999L196.602 89.0817H196.599ZM189.783 73.6306C189.892 73.3304 190.001 73.1427 190.271 73.1427C190.571 73.1427 190.649 73.3611 190.758 73.6306L193.392 80.6073H187.094L189.783 73.6306ZM203.47 89.0817H208.71L209.795 73.767C209.822 73.3611 209.904 73.0881 210.283 73.0881C210.583 73.0881 210.744 73.3065 210.825 73.7124L212.726 84.5477C213.214 87.3998 215.087 89.4093 218.266 89.4093C221.446 89.4093 223.21 87.4817 223.697 84.575L225.516 73.6852C225.57 73.3576 225.734 73.0881 226.031 73.0881C226.41 73.0881 226.437 73.3884 226.464 73.7397L227.549 89.0817H232.789L231.513 74.5278C231.135 70.2121 229.586 68.3903 226.137 68.3903C222.688 68.3903 220.924 70.5362 220.409 73.982L218.86 84.0837C218.805 84.517 218.641 84.7899 218.29 84.7899C217.939 84.7899 217.802 84.5716 217.72 84.1383L216.117 74.0093C215.574 70.5055 213.647 68.3903 210.334 68.3903C207.24 68.3903 205.121 70.1541 204.743 74.5278L203.467 89.0817H203.47ZM254.057 74.4732C254.057 70.3179 251.478 68.7179 245.829 68.7179H235.645V89.0817H241.076V82.2926H245.829C251.475 82.2926 254.057 80.9075 254.057 76.4827V74.4732ZM248.626 76.3189C248.626 77.5676 247.947 78.3011 245.992 78.3011H241.076V72.706H245.992C247.947 72.706 248.626 73.4395 248.626 74.7155V76.3189ZM256.91 89.0817H262.341V68.7179H256.91V89.0817ZM286.887 80.3105V77.4857C286.887 72.0544 283.657 68.4449 277.004 68.4449H275.213C268.56 68.4449 265.329 72.0578 265.329 77.4857V80.3105C265.329 85.7418 268.56 89.3513 275.213 89.3513H277.004C283.657 89.3513 286.887 85.7384 286.887 80.3105ZM271.03 80.5288V77.2162C271.03 73.9854 272.115 72.8186 275.049 72.8186H277.168C280.102 72.8186 281.187 73.9854 281.187 77.2162V80.5288C281.187 83.7596 280.102 84.9537 277.168 84.9537H275.049C272.115 84.9537 271.03 83.7596 271.03 80.5288ZM289.739 89.0817H295.171V73.576C295.171 73.2212 295.28 73.0062 295.631 73.0062C295.931 73.0062 296.01 73.3065 296.119 73.5487L300.544 84.3567C301.847 87.5329 303.556 89.4331 307.033 89.4331C309.967 89.4331 312.573 87.5329 312.573 83.6778V68.7179H307.142V84.2509C307.142 84.6023 307.033 84.8207 306.681 84.8207C306.381 84.8207 306.299 84.5204 306.194 84.2782L301.769 73.4702C300.52 70.4032 298.756 68.3938 295.28 68.3938C292.346 68.3938 289.739 70.4305 289.739 74.1491V89.0817ZM325.582 81.5046C327.455 82.047 327.97 82.3745 327.97 83.2411C327.97 83.9746 327.509 84.5989 326.124 84.5989H315.698V89.0783H325.309C330.631 89.0783 333.128 86.3354 333.128 82.9954C333.128 79.6555 331.037 78.1885 326.803 76.9671L321.836 75.5274C320.829 75.2272 320.396 74.8485 320.396 74.1969C320.396 73.6817 320.802 73.1939 321.972 73.1939H332.453V68.7144H322C317.629 68.7144 315.156 70.8331 315.156 74.2549C315.156 76.9705 316.92 78.9527 320.696 80.0649L325.585 81.5046H325.582ZM335.984 89.0817H341.415V81.1805H351.053V89.0817H356.484V68.7179H351.053V76.4281H341.415V68.7179H335.984V89.0817ZM360.152 89.0817H365.583V68.7179H360.152V89.0817ZM387.659 74.4732C387.659 70.3179 385.08 68.7179 379.431 68.7179H369.247V89.0817H374.678V82.2926H379.431C385.077 82.2926 387.659 80.9075 387.659 76.4827V74.4732ZM382.228 76.3189C382.228 77.5676 381.549 78.3011 379.594 78.3011H374.678V72.706H379.594C381.549 72.706 382.228 73.4395 382.228 74.7155V76.3189ZM153.34 117.927V111.684H142.208V110.759H146.036C150.815 110.759 153.613 107.907 153.613 104.079C153.613 100.251 150.3 97.563 145.821 97.563H135.149V103.806H146.851V104.731H143.944C138.759 104.731 135.146 107.689 135.146 112.414V117.927H153.34ZM164.99 118.387C171.128 118.387 176.095 113.963 176.095 107.743C176.095 101.524 171.128 97.099 164.99 97.099C158.853 97.099 153.886 101.606 153.886 107.743C153.886 113.881 158.856 118.387 164.99 118.387ZM160.917 107.743C160.917 105.328 162.548 103.588 164.99 103.588C165.942 103.588 166.754 103.834 167.406 104.294L161.241 109.452C161.023 108.937 160.914 108.368 160.914 107.743H160.917ZM164.99 111.899C164.039 111.899 163.227 111.626 162.575 111.192L168.767 106.007C168.985 106.522 169.095 107.119 169.095 107.743C169.095 110.159 167.44 111.899 164.994 111.899H164.99ZM194.562 117.927V111.684H183.43V110.759H187.258C192.038 110.759 194.835 107.907 194.835 104.079C194.835 100.251 191.523 97.563 187.043 97.563H176.372V103.806H188.073V104.731H185.167C179.981 104.731 176.368 107.689 176.368 112.414V117.927H194.562ZM204.828 117.927C209.225 117.927 211.808 115.863 211.808 112.359C211.808 110.377 210.802 108.368 208.523 107.716C210.805 107.174 211.808 105.328 211.808 102.964C211.808 99.3507 208.874 97.5596 204.558 97.5596H195.381V103.803H204.504V104.727H195.381V110.756H204.504V111.68H195.381V117.924H204.831L204.828 117.927Z" fill="white"/>
</svg>
