<svg width="37" height="68" viewBox="0 0 37 68" fill="none" xmlns="http://www.w3.org/2000/svg">
<path d="M0.507462 67.0346C1.93 67.5138 3.26975 68.2394 4.81271 67.3153C6.61911 66.2405 8.49325 65.2684 10.3072 64.1936C11.2706 63.6255 12.1512 62.9409 13.0695 62.3042C13.0243 62.4069 12.9791 62.5096 12.9415 62.6055C12.6931 63.1873 12.7533 63.3379 13.3781 63.4406C18.7747 64.3442 23.8025 63.6939 28.1378 60.3943C28.8002 59.8877 29.3571 59.2511 29.9066 58.635C30.3055 58.1832 30.1851 57.9846 29.5453 57.8203C26.7605 57.1084 23.9455 56.8414 21.1079 57.5191C20.1445 57.7519 19.2263 58.1216 18.3005 58.4638C17.7887 58.6555 17.307 58.9156 16.7274 59.1758C18.3306 57.1426 19.9564 55.2464 21.3563 53.2269C22.7563 51.2075 23.8702 49.0374 24.7433 46.7578C24.9239 46.9084 25.0594 47.1069 25.2476 47.1617C25.4358 47.2164 25.6766 47.148 25.8874 47.1001C28.3185 46.5456 30.5388 45.6077 32.4807 44.1427C34.3097 42.7531 35.5817 41.028 36.2741 38.9674C36.7784 37.4614 36.6053 37.3039 34.9269 37.612C32.142 38.1254 29.726 39.2481 27.7991 41.158C27.1293 41.8221 26.6099 42.6093 25.9777 43.3897C25.9777 43.2323 25.9551 43.0885 25.9777 42.9516C26.3164 40.9869 26.6852 39.029 27.0013 37.0643C27.0766 36.5851 27.3024 36.2839 27.7841 36.0991C29.8389 35.3187 31.57 34.1344 33.0828 32.6489C34.5129 31.2455 35.1451 29.5478 35.4387 27.7269C35.5742 26.8917 35.3333 26.7548 34.4452 26.9944C31.3517 27.8296 28.8152 29.3219 27.2948 32.0054C27.2723 32.0465 27.2045 32.0739 27.0766 32.1697C26.926 31.1839 26.783 30.2461 26.64 29.3082C26.6024 29.0549 26.5949 28.7948 26.5347 28.5483C26.3992 27.987 26.3164 27.4736 27.1594 27.323C27.2873 27.3024 27.3927 27.1381 27.4905 27.0355C29.4625 24.9338 30.6141 22.5105 30.727 19.738C30.7872 18.3209 30.2905 16.986 29.6733 15.7059C29.4324 15.2062 29.184 15.1788 28.755 15.569C26.9712 17.1983 25.6616 19.0671 25.2928 21.3878C25.2325 21.7848 25.1723 22.175 25.1046 22.5721C25.1046 22.6132 25.0368 22.6474 24.9616 22.7295C24.5852 21.867 24.2315 21.0181 23.8476 20.1898C23.5165 19.4847 23.1702 18.7796 22.7713 18.1019C22.4703 17.5816 22.5004 17.1503 22.8917 16.6848C23.9756 15.391 24.6003 13.926 24.8412 12.3105C25.0444 10.9345 24.7734 9.65436 24.1638 8.40845C23.8552 7.7718 23.6444 7.73757 23.0724 8.23731C21.4918 9.63382 20.5209 11.311 20.3854 13.3442C20.3778 13.4879 20.3628 13.6248 20.3477 13.7686C20.3477 13.796 20.3176 13.8165 20.3026 13.8439C19.7757 13.5016 19.0908 12.6459 18.9101 12.1736C18.8123 11.9066 18.7069 11.6259 18.5188 11.4137C16.2081 8.74388 13.2802 7.23784 9.43408 7.49113C8.35777 7.55959 8.12444 7.92241 8.79432 8.7165C9.99105 10.1335 11.4362 11.2905 13.3178 11.934C14.6952 12.4063 16.1102 12.6048 17.5629 12.3926C18.15 12.3036 18.4962 12.4816 18.8198 12.8992C19.6026 13.926 20.3929 14.9392 20.7843 16.1714C21.0101 16.8765 21.3187 17.5611 22.0111 18.0471C22.2595 18.2251 22.41 18.5537 22.538 18.8412C23.7648 21.5521 24.7809 24.3314 25.368 27.2203C25.4433 27.5763 25.4508 27.9459 25.4809 28.3088C24.3745 26.8438 23.1025 25.5431 21.4241 24.5847C20.2273 23.907 18.9101 23.5784 17.5704 23.284C17.021 23.1677 16.8403 23.3251 16.9758 23.818C17.2317 24.6942 17.4349 25.6116 17.8865 26.4057C19.279 28.8564 21.3563 30.6089 24.382 31.3345C25.8798 31.6905 25.8422 31.7247 25.8573 33.1212C25.8798 35.572 25.7142 38.009 25.0895 40.3982C25.0293 40.6172 24.9766 40.8363 24.8035 41.0554C24.7885 40.8568 24.7659 40.6515 24.7584 40.4529C24.6455 36.7015 22.8842 33.7374 19.5349 31.5467C19.2037 31.3345 18.8424 31.1497 18.4736 31.0059C17.7811 30.739 17.4123 30.9306 17.2769 31.6084C17.2242 31.8548 17.2242 32.1149 17.2317 32.3751C17.322 35.4351 18.3682 38.1391 21.0026 40.1654C21.8757 40.8363 22.8993 41.3634 23.8928 41.9042C24.367 42.1643 24.6229 42.4245 24.4121 42.9242C23.5691 44.9437 22.7337 46.9631 21.8832 48.9758C21.8531 49.0442 21.7703 49.099 21.552 49.3112C21.552 48.832 21.552 48.5103 21.552 48.1885C21.5144 45.7035 20.7918 43.4034 19.1736 41.3908C18.5865 40.6651 17.8414 40.0353 17.1263 39.3987C16.6672 38.9948 16.4414 39.0564 16.1479 39.6178C15.5533 40.761 15.2597 41.9864 15.1543 43.2391C14.8683 46.5798 16.0199 49.455 18.6241 51.8372C18.7596 51.9605 18.88 52.0905 19.0155 52.2001C19.422 52.5218 19.422 52.8504 19.1209 53.2406C17.4575 55.4244 15.5834 57.437 13.4383 59.2442C13.4006 59.2716 13.3254 59.2648 13.1598 59.299C13.3479 58.8677 13.5211 58.4775 13.6866 58.0942C14.8909 55.4038 15.2447 52.6313 14.3791 49.8315C14.0103 48.6472 13.3479 47.5176 12.7082 46.4223C12.3318 45.7652 12.0157 45.7583 11.5114 46.3402C9.1556 49.0442 7.82338 52.0426 8.25992 55.575C8.50078 57.4918 9.27602 59.2032 10.3824 60.805C10.691 61.2569 10.6007 61.4622 10.1642 61.7634C7.45457 63.6186 4.57939 65.2273 1.4483 66.439C1.11712 66.5691 0.801003 66.7402 0.499939 66.9935L0.507462 67.0346ZM21.7326 55.2875C20.9499 55.1642 20.8144 54.8767 21.3714 54.3154C22.2746 53.4186 23.1552 52.4602 24.2315 51.7619C27.3325 49.7356 30.8173 49.2907 34.4979 50.1053C34.9946 50.2148 35.7021 50.3517 35.8752 50.6735C36.1387 51.1664 35.4838 51.5566 35.1226 51.9262C32.4054 54.644 28.8453 55.4928 24.7132 55.6913C23.8928 55.5818 22.809 55.4586 21.7326 55.2875ZM13.9275 15.2404C14.7931 15.3568 15.6662 15.5005 16.4866 15.7607C19.6478 16.7533 21.8004 18.7728 23.2831 21.4357C23.667 22.134 23.5014 22.3462 22.5154 22.353C22.1993 22.312 21.7703 22.264 21.3337 22.2093C17.307 21.6822 14.6576 19.5737 13.092 16.2467C12.7458 15.5142 13.0619 15.1309 13.935 15.2404H13.9275ZM11.6544 5.3279C11.1351 5.42374 10.6007 5.45113 10.0738 5.51274C6.58148 5.47851 3.76651 3.80817 2.11817 1.48065C1.68915 0.878232 1.82463 0.638634 2.62246 0.529104C2.77299 0.508567 2.93105 0.508567 3.08911 0.501721C5.55033 0.344271 7.74058 1.06991 9.67493 2.36374C10.548 2.94562 11.2706 3.71918 12.0007 4.46535C12.4673 4.94455 12.3394 5.20468 11.6544 5.3279ZM18.022 8.81234C15.4328 7.6212 13.8447 5.8071 13.7995 3.06884C13.7995 2.87032 13.792 2.67179 13.7995 2.47327C13.8372 1.80239 14.0103 1.67917 14.6425 1.98723C15.1619 2.24052 15.6812 2.52119 16.1253 2.87032C17.9543 4.32159 18.6919 6.23838 18.8575 8.37422C18.9026 8.92187 18.6016 9.07932 18.022 8.81234Z" fill="#D3AD42"/>
</svg>
