<svg width="37" height="68" viewBox="0 0 37 68" fill="none" xmlns="http://www.w3.org/2000/svg">
<path d="M36.5157 67.0346C35.0932 67.5138 33.7534 68.2394 32.2105 67.3153C30.4041 66.2405 28.5299 65.2684 26.716 64.1936C25.7526 63.6255 24.872 62.9409 23.9537 62.3042C23.9989 62.4069 24.0441 62.5096 24.0817 62.6055C24.3301 63.1873 24.2699 63.3379 23.6451 63.4406C18.2485 64.3442 13.2207 63.6939 8.88536 60.3943C8.22302 59.8877 7.66604 59.2511 7.1166 58.635C6.71769 58.1832 6.83811 57.9846 7.47788 57.8203C10.2627 57.1084 13.0777 56.8414 15.9153 57.5191C16.8787 57.7519 17.7969 58.1216 18.7227 58.4638C19.2345 58.6555 19.7162 58.9156 20.2958 59.1758C18.6926 57.1426 17.0668 55.2464 15.6669 53.2269C14.2669 51.2075 13.153 49.0374 12.2799 46.7578C12.0992 46.9084 11.9638 47.1069 11.7756 47.1617C11.5874 47.2164 11.3466 47.148 11.1358 47.1001C8.70472 46.5456 6.48436 45.6077 4.54248 44.1427C2.7135 42.7531 1.4415 41.028 0.749045 38.9674C0.244759 37.4614 0.417872 37.3039 2.09632 37.612C4.88118 38.1254 7.29724 39.2481 9.22406 41.158C9.89394 41.8221 10.4133 42.6093 11.0455 43.3897C11.0455 43.2323 11.0681 43.0885 11.0455 42.9516C10.7068 40.9869 10.338 39.029 10.0219 37.0643C9.94662 36.5851 9.72082 36.2839 9.23912 36.0991C7.18434 35.3187 5.45321 34.1344 3.94035 32.6489C2.51028 31.2455 1.87804 29.5478 1.5845 27.7269C1.44902 26.8917 1.68988 26.7548 2.57802 26.9944C5.67148 27.8296 8.20796 29.3219 9.72835 32.0054C9.75093 32.0465 9.81867 32.0739 9.94662 32.1697C10.0972 31.1839 10.2402 30.2461 10.3832 29.3082C10.4208 29.0549 10.4283 28.7948 10.4885 28.5483C10.624 27.987 10.7068 27.4736 9.86383 27.323C9.73588 27.3024 9.6305 27.1381 9.53265 27.0355C7.56067 24.9338 6.40909 22.5105 6.29619 19.738C6.23598 18.3209 6.73274 16.986 7.34992 15.7059C7.59078 15.2062 7.83916 15.1788 8.26818 15.569C10.052 17.1983 11.3616 19.0671 11.7304 21.3878C11.7907 21.7848 11.8509 22.175 11.9186 22.5721C11.9186 22.6132 11.9863 22.6474 12.0616 22.7295C12.4379 21.867 12.7917 21.0181 13.1756 20.1898C13.5067 19.4847 13.853 18.7796 14.2519 18.1019C14.5529 17.5816 14.5228 17.1503 14.1314 16.6848C13.0476 15.391 12.4229 13.926 12.182 12.3105C11.9788 10.9345 12.2498 9.65436 12.8594 8.40845C13.168 7.7718 13.3788 7.73757 13.9508 8.23731C15.5314 9.63382 16.5023 11.311 16.6378 13.3442C16.6453 13.4879 16.6604 13.6248 16.6755 13.7686C16.6755 13.796 16.7056 13.8165 16.7206 13.8439C17.2475 13.5016 17.9324 12.6459 18.113 12.1736C18.2109 11.9066 18.3163 11.6259 18.5044 11.4137C20.8151 8.74388 23.743 7.23784 27.5891 7.49113C28.6654 7.55959 28.8988 7.92241 28.2289 8.7165C27.0321 10.1335 25.587 11.2905 23.7054 11.934C22.328 12.4063 20.913 12.6048 19.4603 12.3926C18.8732 12.3036 18.527 12.4816 18.2034 12.8992C17.4206 13.926 16.6303 14.9392 16.2389 16.1714C16.0131 16.8765 15.7045 17.5611 15.0121 18.0471C14.7637 18.2251 14.6131 18.5537 14.4852 18.8412C13.2584 21.5521 12.2423 24.3314 11.6552 27.2203C11.5799 27.5763 11.5724 27.9459 11.5423 28.3088C12.6487 26.8438 13.9207 25.5431 15.5991 24.5847C16.7959 23.907 18.113 23.5784 19.4528 23.284C20.0022 23.1677 20.1829 23.3251 20.0474 23.818C19.7915 24.6942 19.5883 25.6116 19.1367 26.4057C17.7442 28.8564 15.6669 30.6089 12.6412 31.3345C11.1434 31.6905 11.181 31.7247 11.1659 33.1212C11.1434 35.572 11.3089 38.009 11.9337 40.3982C11.9939 40.6172 12.0466 40.8363 12.2197 41.0554C12.2347 40.8568 12.2573 40.6515 12.2648 40.4529C12.3777 36.7015 14.139 33.7374 17.4883 31.5467C17.8195 31.3345 18.1808 31.1497 18.5496 31.0059C19.242 30.739 19.6109 30.9306 19.7463 31.6084C19.799 31.8548 19.799 32.1149 19.7915 32.3751C19.7012 35.4351 18.655 38.1391 16.0206 40.1654C15.1475 40.8363 14.1239 41.3634 13.1304 41.9042C12.6562 42.1643 12.4003 42.4245 12.6111 42.9242C13.454 44.9437 14.2895 46.9631 15.14 48.9758C15.1701 49.0442 15.2529 49.099 15.4712 49.3112C15.4712 48.832 15.4712 48.5103 15.4712 48.1885C15.5088 45.7035 16.2314 43.4034 17.8496 41.3908C18.4367 40.6651 19.1818 40.0353 19.8969 39.3987C20.356 38.9948 20.5818 39.0564 20.8753 39.6178C21.4699 40.761 21.7635 41.9864 21.8689 43.2391C22.1549 46.5798 21.0033 49.455 18.3991 51.8372C18.2636 51.9605 18.1432 52.0905 18.0077 52.2001C17.6012 52.5218 17.6012 52.8504 17.9023 53.2406C19.5657 55.4244 21.4398 57.437 23.5849 59.2442C23.6226 59.2716 23.6978 59.2648 23.8634 59.299C23.6752 58.8677 23.5021 58.4775 23.3365 58.0942C22.1323 55.4038 21.7785 52.6313 22.6441 49.8315C23.0129 48.6472 23.6752 47.5176 24.315 46.4223C24.6913 45.7652 25.0075 45.7583 25.5118 46.3402C27.8676 49.0442 29.1998 52.0426 28.7633 55.575C28.5224 57.4918 27.7472 59.2032 26.6408 60.805C26.3322 61.2569 26.4225 61.4622 26.859 61.7634C29.5686 63.6186 32.4438 65.2273 35.5749 66.439C35.9061 66.5691 36.2222 66.7402 36.5233 66.9935L36.5157 67.0346ZM15.2905 55.2875C16.0733 55.1642 16.2088 54.8767 15.6518 54.3154C14.7486 53.4186 13.868 52.4602 12.7917 51.7619C9.69071 49.7356 6.20587 49.2907 2.52534 50.1053C2.02858 50.2148 1.32107 50.3517 1.14796 50.6735C0.884525 51.1664 1.53934 51.5566 1.90062 51.9262C4.61775 54.644 8.17786 55.4928 12.31 55.6913C13.1304 55.5818 14.2142 55.4586 15.2905 55.2875ZM23.0957 15.2404C22.2301 15.3568 21.357 15.5005 20.5366 15.7607C17.3754 16.7533 15.2228 18.7728 13.7401 21.4357C13.3562 22.134 13.5218 22.3462 14.5078 22.353C14.8239 22.312 15.2529 22.264 15.6895 22.2093C19.7162 21.6822 22.3656 19.5737 23.9312 16.2467C24.2774 15.5142 23.9613 15.1309 23.0882 15.2404H23.0957ZM25.3687 5.3279C25.8881 5.42374 26.4225 5.45113 26.9493 5.51274C30.4417 5.47851 33.2567 3.80817 34.905 1.48065C35.334 0.878232 35.1986 0.638634 34.4007 0.529104C34.2502 0.508567 34.0921 0.508567 33.9341 0.501721C31.4729 0.344271 29.2826 1.06991 27.3483 2.36374C26.4752 2.94562 25.7526 3.71918 25.0225 4.46535C24.5559 4.94455 24.6838 5.20468 25.3687 5.3279ZM19.0012 8.81234C21.5904 7.6212 23.1785 5.8071 23.2236 3.06884C23.2236 2.87032 23.2312 2.67179 23.2236 2.47327C23.186 1.80239 23.0129 1.67917 22.3807 1.98723C21.8613 2.24052 21.342 2.52119 20.8979 2.87032C19.0689 4.32159 18.3313 6.23838 18.1657 8.37422C18.1206 8.92187 18.4216 9.07932 19.0012 8.81234Z" fill="#D3AD42"/>
</svg>
