<svg width="555" height="60" viewBox="0 0 555 60" fill="none" xmlns="http://www.w3.org/2000/svg">
<path fill-rule="evenodd" clip-rule="evenodd" d="M237.995 0L178.338 59.748H141.44L200.935 0H237.995ZM33.663 59.7482L60.0545 34.0412C70.448 23.9102 74.6693 22.3772 94.5032 22.3772H173.597L196.356 0.00016531H91.5008C64.951 0.00016531 57.4434 2.54116 41.8786 18.0152L0 59.7482H33.663ZM204.195 47.697C207.218 47.697 209.677 50.166 209.677 53.202C209.677 56.238 207.218 58.707 204.195 58.707C201.171 58.707 198.713 56.238 198.713 53.202C198.713 50.166 201.171 47.697 204.195 47.697ZM204.195 46.656C200.595 46.656 197.676 49.587 197.676 53.202C197.676 56.817 200.595 59.748 204.195 59.748C207.795 59.748 210.714 56.817 210.714 53.202C210.714 49.587 207.795 46.656 204.195 46.656ZM205.56 56.742H206.976L205.632 53.943C206.352 53.556 206.839 52.794 206.839 51.918C206.839 50.652 205.811 49.62 204.55 49.62H201.473V56.742H202.749V54.216H204.347L205.56 56.742ZM202.746 50.661H204.55C205.24 50.661 205.802 51.225 205.802 51.918C205.802 52.611 205.24 53.175 204.55 53.175H202.746V50.661ZM170.197 25.95H94.9782C75.0069 25.95 71.879 27.483 62.8209 36.582L39.7455 59.748H70.9558L78.3827 52.29C83.2912 47.364 85.481 46.896 95.3696 46.896H149.336L170.197 25.95ZM418.941 37.875V0H395.594H391.337L331.486 59.997H359.036L395.594 23.383V37.875H418.941ZM533.61 0V20.001H511.383V0H490.671V59.997H511.383V39.519H533.61V59.997H554.322V0H533.61ZM426.093 18.981C426.093 29.463 434.557 37.962 444.995 37.962H463.434V41.598H384.669L366.278 60H464.525C474.963 60 483.426 51.501 483.426 41.019C483.426 30.537 474.963 22.038 464.525 22.038H447.499V18.402H483.426V0H444.992C434.554 0 426.09 8.499 426.09 18.981H426.093ZM265.752 60C248.066 60 234.921 46.56 234.921 30C234.921 13.521 248.066 0 265.752 0H290.686V18.399H270.929C262.965 18.399 257.148 22.08 257.148 30C257.148 37.92 262.962 41.601 270.929 41.601H290.686V60H265.752ZM318.639 0V41.598H342.599L324.244 59.997H297.927V0H318.639Z" fill="white"/>
</svg>
